<svg width="26" height="26" viewBox="0 0 26 26" fill="none" xmlns="http://www.w3.org/2000/svg">
<rect x="7.06738" y="7.06677" width="11.8667" height="11.8667" stroke="black" stroke-width="2"/>
<path fill-rule="evenodd" clip-rule="evenodd" d="M19.5 2H24V6.5H26V2V0H24H19.5V2ZM6.5 2V0H2H0V2V6.5H2V2H6.5ZM2 19.5H0V24V26H2H6.5V24H2V19.5ZM19.5 24V26H24H26V24V19.5H24V24H19.5Z" fill="black"/>
<path fill-rule="evenodd" clip-rule="evenodd" d="M1.22568 26H0V24.7744L6.06699 18.7074V19.9334H7.29227L1.22568 26ZM26 24.7745V26H24.7742L18.7076 19.9334H19.9337V18.7082L26 24.7745ZM1.22549 3.8147e-06L7.29226 6.06677H6.06699V7.29281L0 1.22582V3.8147e-06H1.22549ZM24.7744 3.8147e-06H26V1.22568L19.9337 7.29205V6.06677H18.7076L24.7744 3.8147e-06Z" fill="black"/>
</svg>
