<svg width="37" height="31" viewBox="0 0 37 31" fill="none" xmlns="http://www.w3.org/2000/svg">
<path d="M2.23405 17.2867L9.21106 13.2659L16.1881 17.2867V25.325L9.21106 29.3458L2.23405 25.325L2.23405 17.2867Z" stroke="black" stroke-width="2"/>
<path d="M9.21125 23.6849C10.5249 23.6849 11.5929 22.6215 11.5929 21.3058C11.5929 19.9901 10.5249 18.9267 9.21125 18.9267C7.89763 18.9267 6.82959 19.9901 6.82959 21.3058C6.82959 22.6215 7.89763 23.6849 9.21125 23.6849Z" stroke="black" stroke-width="2"/>
<path fill-rule="evenodd" clip-rule="evenodd" d="M21.7374 0.998047C18.2627 0.998047 15.2051 2.77983 13.4534 5.47341C13.0321 5.4021 12.5994 5.36504 12.1587 5.36504C8.89071 5.36504 6.09105 7.40138 5.00684 10.2728H7.20531C8.15672 8.54411 10.0131 7.36504 12.1587 7.36504C12.6862 7.36504 13.1953 7.43627 13.6772 7.56888C14.1251 7.69215 14.599 7.49065 14.821 7.0825C16.1422 4.65323 18.7416 2.99805 21.7374 2.99805C25.6437 2.99805 28.8712 5.81143 29.4773 9.47671C29.55 9.91599 29.9043 10.2543 30.3464 10.3066C32.4153 10.5514 34.0022 12.2879 34.0022 14.3721C34.0022 16.622 32.1522 18.467 29.8441 18.467L29.7933 18.4667V18.4666H29.7816H20.2642V20.4666H29.7759C29.7986 20.4669 29.8213 20.467 29.8441 20.467C33.2335 20.467 36.0022 17.7498 36.0022 14.3721C36.0022 11.4967 33.9954 9.09991 31.3079 8.45067C30.2678 4.16778 26.3713 0.998047 21.7374 0.998047Z" fill="black"/>
</svg>
