<svg width="32" height="15" viewBox="0 0 32 15" fill="none" xmlns="http://www.w3.org/2000/svg">
<path d="M5.5192 1.09091H3.63888L0.927583 2.83274V4.64382L3.47907 3.01385H3.543V12H5.5192V1.09091ZM9.37366 10.5085H7.66911L7.63183 11.1051C7.54127 12.5487 7.16308 14.0188 7.0086 14.6634H8.30832C8.564 13.9922 9.15526 12.4368 9.30441 11.0945L9.37366 10.5085ZM10.9123 12H18.391V10.3487H13.6396V10.2741L15.5199 8.36186C17.64 6.32706 18.2259 5.33629 18.2259 4.10582C18.2259 2.27876 16.7397 0.941761 14.5451 0.941761C12.3825 0.941761 10.8484 2.28409 10.8484 4.35618H12.7287C12.7287 3.2429 13.4319 2.5451 14.5185 2.5451C15.5572 2.5451 16.3296 3.17898 16.3296 4.20703C16.3296 5.1179 15.7756 5.76776 14.6996 6.85973L10.9123 10.5724V12ZM21.9139 10.5085H20.2093L20.1721 11.1051C20.0815 12.5487 19.7033 14.0188 19.5488 14.6634H20.8486C21.1042 13.9922 21.6955 12.4368 21.8446 11.0945L21.9139 10.5085ZM27.0015 12.1491C29.3346 12.1491 31.0338 10.8121 31.0285 8.9691C31.0338 7.60547 30.1815 6.62536 28.6528 6.40696V6.32173C29.8353 6.06605 30.629 5.18714 30.6236 3.962C30.629 2.30007 29.2121 0.941761 27.0334 0.941761C24.9134 0.941761 23.2728 2.20419 23.2302 4.03125H25.1318C25.1638 3.11506 26.016 2.5451 27.0228 2.5451C28.0402 2.5451 28.7167 3.163 28.7114 4.07919C28.7167 5.03267 27.9283 5.66655 26.7991 5.66655H25.8349V7.18999H26.7991C28.1787 7.18999 28.999 7.88246 28.9937 8.8679C28.999 9.83203 28.1627 10.4925 26.9962 10.4925C25.8989 10.4925 25.0519 9.92259 25.004 9.03303H23.0011C23.0544 10.8761 24.7003 12.1491 27.0015 12.1491Z" fill="black"/>
</svg>
