<svg width="22" height="30" viewBox="0 0 22 30" fill="none" xmlns="http://www.w3.org/2000/svg">
<circle cx="11" cy="13" r="3" stroke="black" stroke-width="2"/>
<path fill-rule="evenodd" clip-rule="evenodd" d="M2 7.97767L11 2.80662L20 7.97767V18.0022H22L22 6.82017L11 0.5L0 6.82017V19.4605L10.3 25.3785V23.0719L2 18.303V7.97767Z" fill="black"/>
<path d="M13 30V26.0625H16.9375L15.1279 27.8737C15.7523 28.5122 16.607 28.8729 17.5 28.875C18.9284 28.8729 20.2009 27.9717 20.677 26.625H20.6871C20.7516 26.442 20.8003 26.2538 20.8328 26.0625H21.9646C21.6811 28.3124 19.7677 29.9999 17.5 30H17.4944C16.3012 30.0035 15.1562 29.5296 14.3146 28.6837L13 30ZM14.1666 24.9375H13.0349C13.3182 22.6884 15.2303 21.0013 17.4972 21H17.5C18.6934 20.9962 19.8387 21.4702 20.6804 22.3163L22 21V24.9375H18.0625L19.8749 23.1263C19.2499 22.4871 18.394 22.1262 17.5 22.125C16.0716 22.1271 14.7991 23.0283 14.323 24.375H14.3129C14.2479 24.5579 14.1992 24.7461 14.1672 24.9375H14.1666Z" fill="black"/>
</svg>
